PathFileType   4   (X/Y/Z)
DataRate	CameraRate	NumFrames	NumMarkers	Units	OrigDataRate	OrigDataStartFrame	OrigNumFrames
120.0	120.0	9	37	mm	120.0	22	173
Frame#	Time	midhip	hip_r	hip_l	knee_r	knee_l	ankle_r	ankle_l	midasis	asis_r	asis_l	psis_r	psis_l	epicondLat_r	epicondLat_l	epicondMed_r	epicondMed_l	malleolusLat_r	malleolusLat_l	malleolusMedv_r	malleolusMedv_l	neck	subclavicle_r	subclavicle_l	sternalnotch	xyphoidprocess	thighwand_r	thighwand_l	upperleg1_r	upperleg1_l	upperleg2_r	upperleg2_l	shankwand_r	shankwand_l	lowerleg1_r	lowerleg1_l	toe_r	toe_l
 	 	X1	Y1	Z1	X2	Y2	Z2	X3	Y3	Z3	X4	Y4	Z4	X5	Y5	Z5	X6	Y6	Z6	X7	Y7	Z7	X8	Y8	Z8	X9	Y9	Z9	X10	Y10	Z10	X11	Y11	Z11	X12	Y12	Z12	X13	Y13	Z13	X14	Y14	Z14	X15	Y15	Z15	X16	Y16	Z16	X17	Y17	Z17	X18	Y18	Z18	X19	Y19	Z19	X20	Y20	Z20	X21	Y21	Z21	X22	Y22	Z22	X23	Y23	Z23	X24	Y24	Z24	X25	Y25	Z25	X26	Y26	Z26	X27	Y27	Z27	X28	Y28	Z28	X29	Y29	Z29	X30	Y30	Z30	X31	Y31	Z31	X32	Y32	Z32	X33	Y33	Z33	X34	Y34	Z34	X35	Y35	Z35	X36	Y36	Z36	X37	Y37	Z37

	22	0.40833	-1461.550	623.498	261.903	-1453.542	634.683	317.770	-1461.575	637.844	200.643	-1397.039	344.927	288.801	-1381.475	348.331	170.401	-1437.137	53.568	270.848	-1561.931	139.159	200.976	-1418.205	701.458	258.267	-1412.006	699.018	348.658	-1424.404	703.897	167.876	-1554.421	710.130	312.607	-1554.531	706.266	226.795	-1401.946	339.431	334.207	-1389.563	351.027	123.165	-1403.842	348.732	244.640	-1354.319	342.571	202.565	-1438.807	51.739	304.256	-1578.274	149.437	174.832	-1437.034	59.086	243.272	-1554.145	141.748	235.076	-1476.583	1029.752	291.040	-1391.138	948.006	316.227	-1403.456	955.548	227.352	-1408.849	965.893	282.367	-1387.093	826.985	262.394	-1294.894	454.712	288.371	-1351.912	450.290	58.319	-1373.470	488.507	331.903	-1357.119	495.023	144.431	-1375.024	400.945	323.980	-1330.999	415.055	152.594	-1398.015	120.746	371.990	-1422.634	153.142	180.949	-1409.763	193.312	319.649	-1432.227	236.589	172.544	-1349.514	42.068	264.180	-1516.830	71.976	182.230
	23	0.41667	-1458.004	623.847	261.906	-1450.171	635.032	317.847	-1457.836	638.209	200.695	-1396.185	344.802	289.077	-1373.531	349.710	170.114	-1437.096	53.525	270.961	-1549.396	136.087	198.899	-1414.682	701.836	258.467	-1408.765	699.383	348.913	-1420.600	704.288	168.021	-1551.152	710.469	312.392	-1550.881	706.537	226.443	-1401.221	339.365	334.476	-1381.738	352.317	122.893	-1402.885	348.632	245.014	-1346.358	344.350	202.415	-1438.900	51.701	304.362	-1565.874	146.129	172.748	-1437.161	59.083	243.393	-1541.545	138.471	232.858	-1472.868	1029.965	290.935	-1387.663	948.086	316.454	-1399.749	955.542	227.560	-1405.212	965.999	282.523	-1383.735	826.990	262.790	-1293.208	453.789	288.810	-1345.669	452.005	58.176	-1371.672	488.300	332.159	-1351.679	496.639	144.148	-1373.832	400.733	324.339	-1324.256	417.211	152.380	-1398.161	120.606	372.242	-1410.505	153.526	179.496	-1409.511	193.202	319.886	-1422.010	236.625	171.582	-1349.565	42.066	264.252	-1502.282	70.831	179.484
	24	0.42500	-1454.493	624.166	261.902	-1446.809	635.351	317.914	-1454.097	638.539	200.739	-1395.286	344.691	289.359	-1365.761	351.043	170.001	-1437.057	53.493	271.073	-1536.606	132.806	196.770	-1411.164	702.181	258.658	-1405.535	699.719	349.160	-1416.792	704.643	168.156	-1547.891	710.764	312.132	-1547.253	706.793	226.068	-1400.480	339.311	334.747	-1374.007	353.558	122.782	-1401.869	348.600	245.416	-1338.756	346.134	202.483	-1438.991	51.673	304.468	-1553.218	142.602	170.611	-1437.261	59.087	243.496	-1528.684	135.059	230.567	-1469.117	1030.156	290.876	-1384.080	948.184	316.629	-1396.071	955.501	227.653	-1401.589	966.064	282.649	-1380.308	826.984	263.163	-1291.498	452.836	289.333	-1339.354	453.640	58.239	-1369.683	488.070	332.475	-1346.247	498.330	144.093	-1372.524	400.571	324.739	-1317.632	419.239	152.440	-1398.289	120.474	372.485	-1398.238	153.900	178.076	-1409.256	193.069	320.101	-1411.536	236.698	170.634	-1349.616	42.059	264.319	-1487.576	69.516	176.822
	25	0.43333	-1451.022	624.459	261.887	-1443.454	635.640	317.970	-1450.349	638.837	200.771	-1394.332	344.592	289.650	-1358.187	352.323	170.072	-1437.015	53.473	271.187	-1523.548	129.344	194.601	-1407.642	702.494	258.841	-1402.314	700.024	349.403	-1412.969	704.963	168.280	-1544.632	711.020	311.829	-1543.651	707.038	225.667	-1399.719	339.268	335.022	-1366.386	354.747	122.839	-1400.825	348.607	245.705	-1331.604	347.929	202.767	-1439.076	51.658	304.574	-1540.298	138.887	168.435	-1437.262	59.154	243.564	-1515.610	131.590	228.323	-1465.315	1030.386	290.810	-1380.525	948.280	316.799	-1392.421	955.449	227.712	-1397.976	966.093	282.741	-1377.000	826.965	263.546	-1289.761	451.850	289.950	-1332.958	455.202	58.515	-1367.689	487.753	332.822	-1340.285	500.160	144.477	-1371.260	400.402	325.106	-1311.027	421.169	152.775	-1398.393	120.353	372.721	-1385.846	154.271	176.687	-1409.085	193.001	320.323	-1401.200	236.687	169.711	-1349.668	42.045	264.383	-1472.684	68.071	174.230
	26	0.44167	-1447.578	624.727	261.860	-1440.100	635.902	318.014	-1446.583	639.104	200.792	-1393.320	344.498	289.948	-1350.837	353.534	170.331	-1436.967	53.464	271.302	-1510.217	125.734	192.409	-1404.109	702.776	259.016	-1399.098	700.300	349.642	-1409.121	705.251	168.391	-1541.370	711.244	311.493	-1540.072	707.266	225.237	-1398.935	339.229	335.299	-1358.895	355.873	123.070	-1399.741	348.556	246.003	-1325.125	349.654	203.203	-1439.153	51.653	304.681	-1527.106	135.014	166.239	-1437.445	59.239	243.659	-1502.457	127.936	226.188	-1461.585	1030.607	290.637	-1377.038	948.309	316.961	-1388.779	955.357	227.820	-1394.363	966.085	282.793	-1373.753	826.894	263.912	-1287.996	450.830	290.658	-1326.481	456.689	59.007	-1365.822	487.478	333.183	-1333.899	502.013	145.280	-1370.103	400.149	325.507	-1304.613	423.025	153.368	-1398.474	120.241	372.951	-1373.340	154.653	175.348	-1408.904	192.934	320.553	-1390.861	236.658	168.837	-1349.721	42.022	264.448	-1457.574	66.539	171.698
	27	0.45000	-1444.131	624.969	261.822	-1436.741	636.136	318.042	-1442.792	639.341	200.797	-1392.254	344.398	290.249	-1343.737	354.656	170.778	-1436.909	53.459	271.415	-1496.618	122.009	190.217	-1400.562	703.029	259.181	-1395.881	700.550	349.875	-1405.242	705.508	168.488	-1538.105	711.441	311.140	-1536.508	707.467	224.780	-1398.126	339.184	335.574	-1351.562	356.921	123.474	-1398.542	348.447	246.343	-1318.411	351.051	203.779	-1439.221	51.654	304.786	-1513.645	131.011	164.039	-1437.825	59.305	243.839	-1489.160	124.281	224.027	-1457.881	1030.755	290.467	-1373.528	948.200	317.024	-1385.144	955.228	227.881	-1390.744	966.036	282.805	-1370.501	826.746	264.053	-1286.204	449.779	291.444	-1319.938	458.092	59.717	-1363.912	487.201	333.587	-1328.645	503.334	145.958	-1368.886	399.815	325.953	-1298.435	424.760	154.196	-1398.540	120.132	373.177	-1360.723	155.064	174.094	-1408.585	192.850	320.783	-1380.384	236.643	168.137	-1349.778	41.991	264.515	-1442.218	64.963	169.225
	28	0.45833	-1440.651	625.182	261.758	-1433.369	636.344	318.054	-1438.968	639.546	200.787	-1391.144	344.283	290.549	-1336.901	355.670	171.409	-1436.839	53.451	271.522	-1482.765	118.200	188.053	-1396.995	703.254	259.334	-1392.662	700.775	350.098	-1401.329	705.733	168.569	-1534.828	711.608	310.754	-1532.950	707.629	224.299	-1397.297	339.127	335.843	-1344.403	357.874	124.050	-1397.453	348.624	246.523	-1311.270	352.285	204.718	-1439.282	51.652	304.885	-1499.922	126.902	161.859	-1438.033	59.398	244.017	-1475.643	120.558	221.897	-1454.090	1030.864	290.412	-1370.025	948.029	316.997	-1381.495	955.159	227.817	-1387.127	965.948	282.777	-1367.294	826.606	263.929	-1284.385	448.703	292.287	-1313.350	459.396	60.638	-1361.939	486.883	334.277	-1324.326	504.177	146.455	-1367.678	399.469	326.387	-1292.337	426.394	155.311	-1398.601	120.022	373.400	-1347.995	155.525	172.972	-1408.179	192.799	321.029	-1370.002	236.504	167.611	-1349.841	41.950	264.585	-1426.596	63.380	166.821
	29	0.46667	-1437.141	625.360	261.686	-1429.974	636.523	318.051	-1435.108	639.718	200.762	-1390.001	344.146	290.843	-1330.324	356.563	172.212	-1436.754	53.432	271.619	-1468.680	114.338	185.944	-1393.409	703.455	259.473	-1389.433	700.980	350.311	-1397.385	705.930	168.636	-1531.530	711.738	310.311	-1529.386	707.742	223.799	-1396.451	339.052	336.103	-1337.427	358.716	124.789	-1396.493	348.937	246.726	-1304.931	353.574	206.000	-1439.338	51.642	304.971	-1485.950	122.715	159.717	-1437.615	59.514	244.026	-1461.851	116.417	219.869	-1450.287	1030.920	290.340	-1366.461	947.849	316.944	-1377.793	955.027	227.732	-1383.508	965.826	282.703	-1363.971	826.430	263.848	-1282.539	447.607	293.160	-1306.747	460.585	61.761	-1359.919	486.668	335.050	-1319.109	505.225	147.494	-1366.533	399.133	326.853	-1286.344	427.915	156.748	-1398.668	119.910	373.617	-1335.158	156.060	172.029	-1407.776	192.763	321.316	-1359.579	236.310	167.213	-1349.912	41.901	264.654	-1410.707	61.818	164.513
	30	0.47500	-1433.604	625.509	261.620	-1426.550	636.674	318.036	-1431.219	639.858	200.728	-1388.840	343.989	291.125	-1323.991	357.328	173.168	-1436.653	53.399	271.698	-1454.389	110.455	183.917	-1389.805	703.631	259.601	-1386.187	701.163	350.510	-1393.424	706.099	168.692	-1528.201	711.827	309.804	-1525.807	707.805	223.289	-1395.588	338.961	336.349	-1330.636	359.439	125.677	-1395.344	348.799	247.267	-1299.805	354.882	207.398	-1439.387	51.620	305.039	-1471.744	118.477	157.635	-1436.999	59.604	243.987	-1448.094	112.181	217.908	-1446.503	1030.883	290.196	-1362.854	947.643	316.856	-1374.147	954.760	227.631	-1379.878	965.674	282.578	-1360.614	826.168	263.876	-1280.675	446.495	294.031	-1300.165	461.642	63.068	-1357.818	486.442	335.437	-1312.791	506.720	149.213	-1365.290	398.829	327.414	-1280.566	429.271	158.412	-1398.746	119.796	373.824	-1322.218	156.693	171.311	-1407.362	192.728	321.581	-1349.108	236.146	167.026	-1349.997	41.846	264.720	-1394.564	60.301	162.338
